<svg  viewBox="0 0 14 14" fill="none" xmlns="http://www.w3.org/2000/svg">
<path d="M7.00004 0.333328C3.31337 0.333328 0.333374 3.31333 0.333374 6.99999C0.333374 10.6867 3.31337 13.6667 7.00004 13.6667C10.6867 13.6667 13.6667 10.6867 13.6667 6.99999C13.6667 3.31333 10.6867 0.333328 7.00004 0.333328ZM9.86671 9.86666C9.60671 10.1267 9.18671 10.1267 8.92671 9.86666L7.00004 7.93999L5.07337 9.86666C4.81337 10.1267 4.39337 10.1267 4.13337 9.86666C3.87337 9.60666 3.87337 9.18666 4.13337 8.92666L6.06004 6.99999L4.13337 5.07333C3.87337 4.81333 3.87337 4.39333 4.13337 4.13333C4.39337 3.87333 4.81337 3.87333 5.07337 4.13333L7.00004 6.05999L8.92671 4.13333C9.18671 3.87333 9.60671 3.87333 9.86671 4.13333C10.1267 4.39333 10.1267 4.81333 9.86671 5.07333L7.94004 6.99999L9.86671 8.92666C10.12 9.17999 10.12 9.60666 9.86671 9.86666Z" fill="#FF5B5B"/>
</svg>
