<svg viewBox="0 0 16 12" fill="none" xmlns="http://www.w3.org/2000/svg">
<path fill-rule="evenodd" clip-rule="evenodd" d="M10.6666 6C10.6666 7.47276 9.47268 8.66667 7.99992 8.66667C6.52716 8.66667 5.33325 7.47276 5.33325 6C5.33325 4.52724 6.52716 3.33333 7.99992 3.33333C9.47268 3.33333 10.6666 4.52724 10.6666 6ZM9.33325 6C9.33325 6.73638 8.7363 7.33333 7.99992 7.33333C7.26354 7.33333 6.66658 6.73638 6.66658 6C6.66658 5.26362 7.26354 4.66667 7.99992 4.66667C8.7363 4.66667 9.33325 5.26362 9.33325 6Z" fill="currentColor"/>
<path fill-rule="evenodd" clip-rule="evenodd" d="M7.99992 0C11.7276 0 14.8598 2.54955 15.7479 6C14.8598 9.45046 11.7276 12 7.99992 12C4.27224 12 1.14004 9.45046 0.251953 6C1.14004 2.54955 4.27224 0 7.99992 0ZM7.99992 10.6667C5.01621 10.6667 2.48746 8.70542 1.63807 6C2.48746 3.29458 5.01621 1.33333 7.99992 1.33333C10.9836 1.33333 13.5124 3.29458 14.3618 6C13.5124 8.70542 10.9836 10.6667 7.99992 10.6667Z" fill="currentColor"/>
</svg>
