<svg Box="0 0 100 100" fill="none" xmlns="http://www.w3.org/2000/svg">
<rect width="100" height="100" rx="12" fill="#131212"/>
<path d="M20.1477 55V43.3636H24.5114C25.4053 43.3636 26.1553 43.5189 26.7614 43.8295C27.3712 44.1402 27.8314 44.5758 28.142 45.1364C28.4564 45.6932 28.6136 46.3428 28.6136 47.0852C28.6136 47.8314 28.4545 48.4792 28.1364 49.0284C27.822 49.5739 27.358 49.9962 26.7443 50.2955C26.1307 50.5909 25.3769 50.7386 24.483 50.7386H21.375V48.9886H24.1989C24.7216 48.9886 25.1496 48.9167 25.483 48.7727C25.8163 48.625 26.0625 48.411 26.2216 48.1307C26.3845 47.8466 26.4659 47.4981 26.4659 47.0852C26.4659 46.6723 26.3845 46.3201 26.2216 46.0284C26.0587 45.733 25.8106 45.5095 25.4773 45.358C25.1439 45.2027 24.714 45.125 24.1875 45.125H22.2557V55H20.1477ZM26.1591 49.7273L29.0398 55H26.6875L23.858 49.7273H26.1591ZM34.2017 55.1705C33.3267 55.1705 32.571 54.9886 31.9347 54.625C31.3021 54.2576 30.8153 53.7386 30.4744 53.0682C30.1335 52.3939 29.9631 51.6004 29.9631 50.6875C29.9631 49.7898 30.1335 49.0019 30.4744 48.3239C30.8191 47.642 31.3002 47.1117 31.9176 46.733C32.535 46.3504 33.2604 46.1591 34.0938 46.1591C34.6316 46.1591 35.1392 46.2462 35.6165 46.4205C36.0975 46.5909 36.5218 46.8561 36.8892 47.2159C37.2604 47.5758 37.5521 48.0341 37.7642 48.5909C37.9763 49.1439 38.0824 49.803 38.0824 50.5682V51.1989H30.929V49.8125H36.1108C36.107 49.4186 36.0218 49.0682 35.8551 48.7614C35.6884 48.4508 35.4555 48.2064 35.1562 48.0284C34.8608 47.8504 34.5161 47.7614 34.1222 47.7614C33.7017 47.7614 33.3324 47.8636 33.0142 48.0682C32.696 48.2689 32.4479 48.5341 32.2699 48.8636C32.0956 49.1894 32.0066 49.5473 32.0028 49.9375V51.1477C32.0028 51.6553 32.0956 52.0909 32.2812 52.4545C32.4669 52.8144 32.7263 53.0909 33.0597 53.2841C33.393 53.4735 33.7831 53.5682 34.2301 53.5682C34.5294 53.5682 34.8002 53.5265 35.0426 53.4432C35.285 53.3561 35.4953 53.2292 35.6733 53.0625C35.8513 52.8958 35.9858 52.6894 36.0767 52.4432L37.9972 52.6591C37.8759 53.1667 37.6449 53.6098 37.304 53.9886C36.9669 54.3636 36.535 54.6553 36.0085 54.8636C35.482 55.0682 34.8797 55.1705 34.2017 55.1705ZM41.8793 49.8864V55H39.8224V46.2727H41.7884V47.7557H41.8906C42.0914 47.267 42.4115 46.8788 42.8509 46.5909C43.294 46.303 43.8414 46.1591 44.4929 46.1591C45.0952 46.1591 45.6198 46.2879 46.0668 46.5455C46.5175 46.803 46.866 47.1761 47.1122 47.6648C47.3622 48.1534 47.4853 48.7462 47.4815 49.4432V55H45.4247V49.7614C45.4247 49.178 45.2732 48.7216 44.9702 48.392C44.6709 48.0625 44.2562 47.8977 43.7259 47.8977C43.366 47.8977 43.0459 47.9773 42.7656 48.1364C42.4891 48.2917 42.2713 48.517 42.1122 48.8125C41.9569 49.108 41.8793 49.4659 41.8793 49.8864ZM49.5724 55V46.2727H51.6293V55H49.5724ZM50.6065 45.0341C50.2808 45.0341 50.0005 44.9261 49.7656 44.7102C49.5308 44.4905 49.4134 44.2273 49.4134 43.9205C49.4134 43.6098 49.5308 43.3466 49.7656 43.1307C50.0005 42.911 50.2808 42.8011 50.6065 42.8011C50.9361 42.8011 51.2164 42.911 51.4474 43.1307C51.6823 43.3466 51.7997 43.6098 51.7997 43.9205C51.7997 44.2273 51.6823 44.4905 51.4474 44.7102C51.2164 44.9261 50.9361 45.0341 50.6065 45.0341ZM53.7443 58.2727V46.2727H55.767V47.7159H55.8864C55.9924 47.5038 56.142 47.2784 56.3352 47.0398C56.5284 46.7973 56.7898 46.5909 57.1193 46.4205C57.4489 46.2462 57.8693 46.1591 58.3807 46.1591C59.0549 46.1591 59.6629 46.3314 60.2045 46.6761C60.75 47.017 61.1818 47.5227 61.5 48.1932C61.822 48.8598 61.983 49.678 61.983 50.6477C61.983 51.6061 61.8258 52.4205 61.5114 53.0909C61.197 53.7614 60.7689 54.2727 60.2273 54.625C59.6856 54.9773 59.072 55.1534 58.3864 55.1534C57.8864 55.1534 57.4716 55.0701 57.142 54.9034C56.8125 54.7367 56.5473 54.536 56.3466 54.3011C56.1496 54.0625 55.9962 53.8371 55.8864 53.625H55.8011V58.2727H53.7443ZM55.7614 50.6364C55.7614 51.2008 55.8409 51.6951 56 52.1193C56.1629 52.5436 56.3958 52.875 56.6989 53.1136C57.0057 53.3485 57.3769 53.4659 57.8125 53.4659C58.267 53.4659 58.6477 53.3447 58.9545 53.1023C59.2614 52.8561 59.4924 52.5208 59.6477 52.0966C59.8068 51.6686 59.8864 51.1818 59.8864 50.6364C59.8864 50.0947 59.8087 49.6136 59.6534 49.1932C59.4981 48.7727 59.267 48.4432 58.9602 48.2045C58.6534 47.9659 58.2708 47.8466 57.8125 47.8466C57.3731 47.8466 57 47.9621 56.6932 48.1932C56.3864 48.4242 56.1534 48.7481 55.9943 49.1648C55.839 49.5814 55.7614 50.072 55.7614 50.6364ZM66.2557 55.1761C65.7027 55.1761 65.2045 55.0777 64.7614 54.8807C64.322 54.6799 63.9735 54.3845 63.7159 53.9943C63.4621 53.6042 63.3352 53.1231 63.3352 52.5511C63.3352 52.0587 63.4261 51.6515 63.608 51.3295C63.7898 51.0076 64.0379 50.75 64.3523 50.5568C64.6667 50.3636 65.0208 50.2178 65.4148 50.1193C65.8125 50.017 66.2235 49.9432 66.6477 49.8977C67.1591 49.8447 67.5739 49.7973 67.892 49.7557C68.2102 49.7102 68.4413 49.642 68.5852 49.5511C68.733 49.4564 68.8068 49.3106 68.8068 49.1136V49.0795C68.8068 48.6515 68.6799 48.3201 68.4261 48.0852C68.1723 47.8504 67.8068 47.733 67.3295 47.733C66.8258 47.733 66.4261 47.8428 66.1307 48.0625C65.839 48.2822 65.642 48.5417 65.5398 48.8409L63.6193 48.5682C63.7708 48.0379 64.0208 47.5947 64.3693 47.2386C64.7178 46.8788 65.1439 46.6098 65.6477 46.4318C66.1515 46.25 66.7083 46.1591 67.3182 46.1591C67.7386 46.1591 68.1572 46.2083 68.5739 46.3068C68.9905 46.4053 69.3712 46.5682 69.7159 46.7955C70.0606 47.0189 70.3371 47.3239 70.5455 47.7102C70.7576 48.0966 70.8636 48.5795 70.8636 49.1591V55H68.8864V53.8011H68.8182C68.6932 54.0436 68.517 54.2708 68.2898 54.483C68.0663 54.6913 67.7841 54.8598 67.4432 54.9886C67.1061 55.1136 66.7102 55.1761 66.2557 55.1761ZM66.7898 53.6648C67.2027 53.6648 67.5606 53.5833 67.8636 53.4205C68.1667 53.2538 68.3996 53.0341 68.5625 52.7614C68.7292 52.4886 68.8125 52.1913 68.8125 51.8693V50.8409C68.7481 50.8939 68.6383 50.9432 68.483 50.9886C68.3314 51.0341 68.161 51.0739 67.9716 51.108C67.7822 51.142 67.5947 51.1723 67.4091 51.1989C67.2235 51.2254 67.0625 51.2481 66.9261 51.267C66.6193 51.3087 66.3447 51.3769 66.1023 51.4716C65.8598 51.5663 65.6686 51.6989 65.5284 51.8693C65.3883 52.036 65.3182 52.2519 65.3182 52.517C65.3182 52.8958 65.4564 53.1818 65.733 53.375C66.0095 53.5682 66.3617 53.6648 66.7898 53.6648ZM73.8977 58.2727C73.6174 58.2727 73.358 58.25 73.1193 58.2045C72.8845 58.1629 72.697 58.1136 72.5568 58.0568L73.0341 56.4545C73.3333 56.5417 73.6004 56.5833 73.8352 56.5795C74.0701 56.5758 74.2765 56.5019 74.4545 56.358C74.6364 56.2178 74.7898 55.983 74.9148 55.6534L75.0909 55.1818L71.9261 46.2727H74.108L76.1193 52.8636H76.2102L78.2273 46.2727H80.4148L76.9205 56.0568C76.7576 56.5189 76.5417 56.9148 76.2727 57.2443C76.0038 57.5777 75.6742 57.8314 75.2841 58.0057C74.8977 58.1837 74.4356 58.2727 73.8977 58.2727Z" fill="white"/>
</svg>
