<svg viewBox="0 0 19 19" fill="none" xmlns="http://www.w3.org/2000/svg">
    <path
        d="M8.17602 2.83702C8.55499 1.27601 10.775 1.27601 11.154 2.83702C11.3988 3.84541 12.5541 4.32396 13.4403 3.78402C14.812 2.94818 16.3818 4.51799 15.546 5.88976C15.0061 6.77591 15.4846 7.93122 16.493 8.17602C18.054 8.55499 18.054 10.775 16.493 11.154C15.4846 11.3988 15.0061 12.5541 15.546 13.4403C16.3818 14.812 14.812 16.3818 13.4403 15.546C12.5541 15.0061 11.3988 15.4846 11.154 16.493C10.775 18.054 8.55499 18.054 8.17602 16.493C7.93122 15.4846 6.77591 15.0061 5.88977 15.546C4.518 16.3818 2.94818 14.812 3.78402 13.4403C4.32396 12.5541 3.84541 11.3988 2.83702 11.154C1.27601 10.775 1.27601 8.55499 2.83702 8.17602C3.84541 7.93122 4.32396 6.77591 3.78402 5.88976C2.94818 4.51799 4.51799 2.94818 5.88976 3.78402C6.77591 4.32395 7.93122 3.84541 8.17602 2.83702Z"
        stroke="#132D46" stroke-width="2" stroke-linecap="round" stroke-linejoin="round" />
    <path
        d="M12.3313 9.66501C12.3313 11.1375 11.1375 12.3313 9.66501 12.3313C8.19248 12.3313 6.99876 11.1375 6.99876 9.66501C6.99876 8.19248 8.19248 6.99876 9.66501 6.99876C11.1375 6.99876 12.3313 8.19248 12.3313 9.66501Z"
        stroke="#132D46" stroke-width="2" stroke-linecap="round" stroke-linejoin="round" />
</svg>
    