<svg width="14" height="14" viewBox="0 0 14 14" fill="none" xmlns="http://www.w3.org/2000/svg">
<path d="M7.00004 0.333336C3.32004 0.333336 0.333374 3.32 0.333374 7C0.333374 10.68 3.32004 13.6667 7.00004 13.6667C10.68 13.6667 13.6667 10.68 13.6667 7C13.6667 3.32 10.68 0.333336 7.00004 0.333336ZM5.19337 9.86L2.80004 7.46667C2.54004 7.20667 2.54004 6.78667 2.80004 6.52667C3.06004 6.26667 3.48004 6.26667 3.74004 6.52667L5.66671 8.44667L10.2534 3.86C10.5134 3.6 10.9334 3.6 11.1934 3.86C11.4534 4.12 11.4534 4.54 11.1934 4.8L6.13337 9.86C5.88004 10.12 5.45337 10.12 5.19337 9.86Z" fill="#1CCB57"/>
</svg>
