<svg  viewBox="0 0 20 20" fill="none" xmlns="http://www.w3.org/2000/svg">
<rect width="20" height="20" rx="4" fill="#FF5B5B"/>
<g clip-path="url(#clip0_65_9919)">
<g clip-path="url(#clip1_65_9919)">
<g clip-path="url(#clip2_65_9919)">
<path d="M9.99992 3.33337C6.31325 3.33337 3.33325 6.31337 3.33325 10C3.33325 13.6867 6.31325 16.6667 9.99992 16.6667C13.6866 16.6667 16.6666 13.6867 16.6666 10C16.6666 6.31337 13.6866 3.33337 9.99992 3.33337ZM12.8666 12.8667C12.6066 13.1267 12.1866 13.1267 11.9266 12.8667L9.99992 10.94L8.07325 12.8667C7.81325 13.1267 7.39325 13.1267 7.13325 12.8667C6.87325 12.6067 6.87325 12.1867 7.13325 11.9267L9.05992 10L7.13325 8.07337C6.87325 7.81337 6.87325 7.39337 7.13325 7.13337C7.39325 6.87337 7.81325 6.87337 8.07325 7.13337L9.99992 9.06004L11.9266 7.13337C12.1866 6.87337 12.6066 6.87337 12.8666 7.13337C13.1266 7.39337 13.1266 7.81337 12.8666 8.07337L10.9399 10L12.8666 11.9267C13.1199 12.18 13.1199 12.6067 12.8666 12.8667Z" fill="white"/>
</g>
</g>
</g>
<defs>
<clipPath id="clip0_65_9919">
<rect width="16" height="16" fill="white" transform="translate(2 2)"/>
</clipPath>
<clipPath id="clip1_65_9919">
<rect width="16" height="16" fill="white" transform="translate(2 2)"/>
</clipPath>
<clipPath id="clip2_65_9919">
<rect width="16" height="16" fill="white" transform="translate(2 2)"/>
</clipPath>
</defs>
</svg>
