<svg  viewBox="0 0 20 20" fill="none" xmlns="http://www.w3.org/2000/svg">
<rect width="20" height="20" rx="4" fill="#1CCB57"/>
<g clip-path="url(#clip0_65_9895)">
<g clip-path="url(#clip1_65_9895)">
<path d="M9.99992 3.33337C6.31992 3.33337 3.33325 6.32004 3.33325 10C3.33325 13.68 6.31992 16.6667 9.99992 16.6667C13.6799 16.6667 16.6666 13.68 16.6666 10C16.6666 6.32004 13.6799 3.33337 9.99992 3.33337ZM8.19325 12.86L5.79992 10.4667C5.53992 10.2067 5.53992 9.78671 5.79992 9.52671C6.05992 9.26671 6.47992 9.26671 6.73992 9.52671L8.66658 11.4467L13.2533 6.86004C13.5133 6.60004 13.9333 6.60004 14.1933 6.86004C14.4533 7.12004 14.4533 7.54004 14.1933 7.80004L9.13325 12.86C8.87992 13.12 8.45325 13.12 8.19325 12.86Z" fill="white"/>
</g>
</g>
<defs>
<clipPath id="clip0_65_9895">
<rect width="16" height="16" fill="white" transform="translate(2 2)"/>
</clipPath>
<clipPath id="clip1_65_9895">
<rect width="16" height="16" fill="white" transform="translate(2 2)"/>
</clipPath>
</defs>
</svg>
