<svg viewBox="0 0 20 20" fill="none" xmlns="http://www.w3.org/2000/svg">
<rect width="20" height="20" rx="4" fill="#ED2B2B"/>
<path d="M9.99996 16.6666C13.68 16.6666 16.6666 13.68 16.6666 9.99996C16.6666 6.31996 13.68 3.33329 9.99996 3.33329C6.31996 3.33329 3.33329 6.31996 3.33329 9.99996C3.33329 13.68 6.31996 16.6666 9.99996 16.6666ZM9.99996 6.66663C10.3666 6.66663 10.6666 6.96663 10.6666 7.33329L10.6666 9.99996C10.6666 10.3666 10.3666 10.6666 9.99996 10.6666C9.63329 10.6666 9.33329 10.3666 9.33329 9.99996L9.33329 7.33329C9.33329 6.96663 9.63329 6.66663 9.99996 6.66663ZM9.33329 12L10.6666 12L10.6666 13.3333L9.33329 13.3333L9.33329 12Z" fill="white"/>
</svg>
