<svg  viewBox="0 0 20 20" fill="none" xmlns="http://www.w3.org/2000/svg">
<rect width="20" height="20" rx="4" fill="#FAC91C"/>
<path d="M4.98 16H15.02C16.0467 16 16.6867 14.8866 16.1733 14L11.1533 5.32662C10.64 4.43995 9.36 4.43995 8.84667 5.32662L3.82667 14C3.31333 14.8866 3.95333 16 4.98 16ZM10 11.3333C9.63333 11.3333 9.33333 11.0333 9.33333 10.6666V9.33329C9.33333 8.96662 9.63333 8.66662 10 8.66662C10.3667 8.66662 10.6667 8.96662 10.6667 9.33329V10.6666C10.6667 11.0333 10.3667 11.3333 10 11.3333ZM10.6667 14H9.33333V12.6666H10.6667V14Z" fill="white"/>
</svg>
